<?xml version="1.0" encoding="utf-8"?>
<!-- Generator: Adobe Illustrator 26.3.1, SVG Export Plug-In . SVG Version: 6.00 Build 0)  -->
<svg version="1.1" id="Layer_1" xmlns="http://www.w3.org/2000/svg" xmlns:xlink="http://www.w3.org/1999/xlink" x="0px" y="0px"
	 viewBox="0 0 475.6 542.1" style="enable-background:new 0 0 475.6 542.1;" xml:space="preserve">
<style type="text/css">
	.st0{fill:#2953A9;}
	.st1{fill:#F7882F;}
</style>
<g>
	<path class="st0" d="M12.1,122c1.7,6.8,4.2,13.9,8.2,19.7c4.2,5.9,10.2,10.3,17.3,11.8c3.5,0.8,7.2,0.9,10.8,0.5
		c2.2-0.2,4.3-0.6,6.4-1.1c0.7-0.2,7-1.7,7-2.1c-0.4-3.7,1-16.2-12.6-27.7C45.6,121.2,33.8,113.1,12.1,122L12.1,122z"/>
	<path class="st0" d="M80.1,131.3c0.3,2.5,0.6,5.1,1,7.6c0.3,1.8,0.5,3.7,0.8,5.5c1.8,10.1,9.4,18.5,18.8,22.5
		c4.1,1.8,8.1,2.3,12.5,2.2c0.9,0,1.9,0,2.9,0c1.6,0,3.2,0,4.8-0.1c2-0.1,4-0.1,5.9-0.7c0.4-0.1,0.4-0.6,0.6-1
		c0.1-0.4,0.2-0.9,0.3-1.3c0.2-0.8,0.4-1.5,0.5-2.3s0.1-1.6,0.1-2.4c0-2.3-0.3-4.6-0.8-6.9s-1.3-4.5-2.2-6.7s-2-4-3.3-5.9
		c-0.4-0.6-0.9-1.2-1.3-1.7c-2.2-2.7-4.9-4.8-7.9-6.5c-2.1-1.2-4.3-2.1-6.6-2.8c-1.1-0.4-2.3-0.7-3.5-1c-1.3-0.3-2.4-0.3-3.7-0.3
		c-1,0-2.1,0.1-3.1,0.1C90.4,130,85.2,130.5,80.1,131.3L80.1,131.3z"/>
	<path class="st0" d="M75.8,63.5c0,0-1.6,13.2,0,20.5c1.4,6.6,6.2,12.9,11.4,16.8c4.3,3.3,8.6,5.6,14.1,6c2.7,0.2,5.3,0.2,8,0.2
		c0.8,0,8.9-0.4,8.9-0.8c0-4.4,0.4-17.2-2.5-23c0-0.1-0.1-0.1-0.1-0.2c-1.7-3.3-3.6-6.5-6.3-9.1c-4.6-4.5-10.7-7.9-17.1-8.9
		c-4.5-0.7-9.2-0.9-13.7-1.3C78.4,63.8,75.8,63.6,75.8,63.5L75.8,63.5z"/>
	<path class="st0" d="M145.3,108.6c0,0-3.7,16.4,0.8,27.4c2,5,5.6,9.3,10,12.5c3.1,2.2,6.5,3.9,10.1,4.9c4.1,1.1,7.9,1.1,12.1,1
		c2.2,0,4.4-0.1,6.5-0.3c0,0,1-11.4,0-18.2S179.9,110.3,145.3,108.6L145.3,108.6z"/>
	<path class="st0" d="M140.4,32.8c0,0-5,15.7,0,27.5c3.3,5.8,7.2,19.2,32.9,18.8c0.2,0,1.2-4,1.3-4.4c0.6-2.3,1-4.7,1.1-7.2
		c0.1-8.5-2.5-17.5-9.1-23.1c-4.9-4.1-10.2-7.2-16.3-9.1C149.3,34.9,140.6,32.4,140.4,32.8L140.4,32.8z"/>
	<path class="st0" d="M197.7,72.8c-1.6,2.9-3.1,6-4.3,9.2c-4.3,11.1-3,23.7,5.7,32.1c5,3.7,14.3,8.3,19.9,9.9
		c4.7-9.3,10.8-18.8,6.3-29.6c-1.1-2.6-2.5-5-4.2-7.2C215.4,79.7,206.6,75.4,197.7,72.8L197.7,72.8z"/>
	<path class="st0" d="M236.2,7.4c-0.5-0.5-7.5,7.8-7.9,8.3c-5.3,6.9-8.8,14.2-9.3,22.9c-0.3,4.1,2.3,9.3,4.5,12.7
		c3.2,5,7.8,9.1,12.7,12.5c1.2,0.8,11-10.8,11.8-11.9c7.9-10.5,5.9-27.2-3.2-36.5C242.1,12.6,239,10.1,236.2,7.4L236.2,7.4z"/>
	<path class="st0" d="M274.5,72.8c-0.3-0.8-11.4,4-12,4.3c-7.4,3.9-13.6,10.2-15.7,18.5c-1.1,4.5-1.1,9.2-0.1,13.8
		c0.5,2.3,1.3,4.6,2.3,6.7c0.5,1,3.6,7.9,4.7,7.8c0,0,23.8-2.3,28.1-24.2c1.1-5.4-0.9-12.7-3.1-17.7C277.3,79,275.6,76,274.5,72.8
		L274.5,72.8z"/>
	<path class="st0" d="M296.8,80.6c4-0.5,8.1-0.9,12.1-1.9c3.3-0.8,6.6-2,9.6-3.6s4.9-3.9,7.3-6.3c3.5-3.5,6-10.6,6.5-15.4
		c0.6-6.4-0.2-12.8-0.3-19.2c0-0.5-14.5,2.9-15.4,3.2c-5.8,2-11.8,5-16,9.6c-5,5.3-6.3,13-5.5,20C295.6,71.4,296,76,296.8,80.6
		L296.8,80.6z"/>
	<path class="st0" d="M286.7,155.3c0,0-3.3-17.6,1.4-27.3c1.9-3.3,7.2-17.2,36.8-19.7c1,8.7,6.4,32.3-14.5,43.3
		C304.5,153.7,297.4,155.1,286.7,155.3L286.7,155.3z"/>
	<path class="st0" d="M394.9,65.1c0.2,4.3,0.2,8.7,0,13.1c-0.2,3-0.5,6-1.2,9c-2.5,10-11.2,18.4-21.4,19.7c-7.4,1-16.8,1.4-19.7,0
		c0,0-0.8-14.6,1.5-20.5c5.6-14.1,20.4-21.5,34.9-21.4C390.9,65,392.9,65,394.9,65.1L394.9,65.1z"/>
	<path class="st0" d="M341.5,167.4c0,0-0.6-10.8,0.8-14.9s7.5-28.8,46.8-21.9c0,0,2.1,14.7-8.5,28.4
		C376.3,162.2,371.7,172.7,341.5,167.4L341.5,167.4z"/>
	<path class="st0" d="M457.6,122.7c0,0-41-21.9-50.9,26.4C412.5,151.8,444.4,169.8,457.6,122.7z"/>
</g>
<g>
	<path class="st1" d="M192.5,240.8c0,0,19,13.5,34.4,15.1c13.5,0,35.4,0,54.4-15.1c11-7.2,63.7-46.8,84-52.2
		c3.6-1.4,8.7-4.1,7.7,2.3c-2.5,1.7-32.1,22.8-48.6,46.4c-16.8,25.4-41.8,60.4-57.1,117.6c-2.9,10.5-15.5,63.3-18,84.6
		s-7,67.9-7.2,78.4c0,2.9-0.1,5.8-0.3,8.7c-0.2,2.1-0.3,4.5-1.4,6.5c-1,1.8-3.2,2.1-4.9,1c-0.4-0.2-0.7-0.6-1-0.9
		c-0.1-0.1-0.3-0.3-0.4-0.4c-0.1-0.2-0.1-0.3-0.2-0.5c-0.2-0.8-0.4-1.6-0.4-2.4c-0.1-1.2-0.1-2.3-0.2-3.5c-0.2-3.3-0.4-6.5-0.5-9.8
		c-0.2-4.2-0.5-8.5-0.8-12.8c-0.3-4.9-0.6-9.7-1-14.6s-0.8-10.2-1.2-15.3s-0.9-9.9-1.4-14.9c-0.5-4.5-1-8.9-1.6-13.3
		c-0.5-3.6-1-7.1-1.7-10.7c-0.2-0.9-0.4-1.8-0.6-2.7c-4.6-24-20.4-130.7-80.8-200c-3.1-4.3-29-32.5-43.5-39.9
		c-3.2-2.8-2.3-3.3-2.5-4.2s2.2-2.9,8.3-0.3S146.7,208.2,192.5,240.8L192.5,240.8z"/>
	<ellipse class="st1" cx="236" cy="202.6" rx="32.7" ry="31.9"/>
</g>
</svg>
