<?xml version="1.0" encoding="UTF-8"?>
<svg id="Layer_1" data-name="Layer 1" xmlns="http://www.w3.org/2000/svg" viewBox="0 0 1443.19 627.06">
  <defs>
    <style>
      .cls-1 {
        letter-spacing: -.01em;
      }

      .cls-2 {
        fill: #f6852e;
        font-family: ZTNature-Bold, 'ZT Nature';
        font-size: 110.85px;
      }

      .cls-2, .cls-3 {
        font-weight: 700;
      }

      .cls-4 {
        fill: #f7882f;
      }

      .cls-5 {
        letter-spacing: -.01em;
      }

      .cls-6 {
        letter-spacing: -.1em;
      }

      .cls-7 {
        letter-spacing: -.02em;
      }

      .cls-3 {
        font-family: Stem-Bold, Stem-Bold;
        font-size: 168.47px;
      }

      .cls-3, .cls-8 {
        fill: #2953a9;
      }
    </style>
  </defs>
  <g>
    <path class="cls-8" d="M48.62,153.03c1.69,6.76,4.17,13.92,8.22,19.69,4.17,5.94,10.17,10.29,17.32,11.84,3.54.77,7.2.87,10.79.51,2.17-.22,4.31-.6,6.43-1.1.67-.16,7.02-1.7,6.97-2.11-.39-3.68.97-16.25-12.58-27.67-3.68-1.94-15.48-10.06-37.15-1.16Z"/>
    <path class="cls-8" d="M116.54,162.32c.3,2.54.63,5.07.98,7.6.26,1.84.52,3.67.85,5.5,1.81,10.11,9.42,18.52,18.76,22.53,4.12,1.77,8.06,2.32,12.5,2.21.95-.02,1.9,0,2.85,0,1.58,0,3.17-.02,4.75-.08,1.99-.07,4.04-.11,5.95-.7.43-.13.45-.62.55-1,.11-.43.22-.86.32-1.29.18-.78.38-1.53.47-2.32s.13-1.63.13-2.45c0-2.31-.3-4.62-.83-6.88s-1.29-4.53-2.25-6.68-1.99-4.02-3.28-5.85c-.41-.59-.85-1.16-1.3-1.71-2.2-2.66-4.94-4.83-7.95-6.5-2.11-1.17-4.34-2.1-6.63-2.83-1.15-.37-2.32-.69-3.49-.96-1.28-.3-2.39-.33-3.7-.29-1.04.03-2.07.07-3.11.13-5.21.28-10.42.81-15.58,1.58Z"/>
    <path class="cls-8" d="M112.28,94.59s-1.55,13.16,0,20.51c1.39,6.6,6.2,12.87,11.44,16.84,4.33,3.29,8.65,5.56,14.1,6.01,2.66.22,5.33.25,7.99.16.78-.03,8.85-.4,8.85-.76,0-4.45.39-17.22-2.52-23.03-.03-.05-.05-.11-.08-.16-1.67-3.33-3.61-6.47-6.26-9.11-4.55-4.53-10.74-7.87-17.09-8.92-4.5-.74-9.16-.88-13.7-1.26-.15-.01-2.74-.23-2.73-.27Z"/>
    <path class="cls-8" d="M181.75,139.68s-3.68,16.35.77,27.43c2.02,5.03,5.6,9.31,9.97,12.49,3.06,2.23,6.48,3.91,10.13,4.92,4.05,1.13,7.91,1.1,12.07,1.02,2.18-.04,4.36-.12,6.54-.26,0,0,.97-11.44,0-18.16-.97-6.72-4.86-25.81-39.47-27.43Z"/>
    <path class="cls-8" d="M176.91,63.82s-5.03,15.67,0,27.48c3.29,5.81,7.16,19.16,32.9,18.77.17,0,1.2-4.04,1.29-4.37.63-2.35,1-4.74,1.05-7.18.15-8.54-2.52-17.51-9.1-23.12-4.86-4.14-10.24-7.16-16.33-9.14-.9-.29-9.66-2.84-9.79-2.44Z"/>
    <path class="cls-8" d="M234.19,103.88c-1.63,2.95-3.12,6.01-4.34,9.15-4.31,11.07-2.97,23.69,5.7,32.06,5.03,3.68,14.32,8.32,19.93,9.87,4.66-9.31,10.79-18.77,6.33-29.57-1.07-2.59-2.47-5.02-4.19-7.23-5.77-7.41-14.57-11.75-23.42-14.29Z"/>
    <path class="cls-8" d="M272.7,38.47c-.47-.46-7.52,7.78-7.91,8.28-5.31,6.87-8.79,14.24-9.33,22.87-.26,4.11,2.33,9.28,4.54,12.69,3.25,5.01,7.83,9.07,12.7,12.46,1.16.81,11.03-10.84,11.79-11.86,7.92-10.54,5.92-27.18-3.2-36.47-2.74-2.79-5.77-5.27-8.58-7.99Z"/>
    <path class="cls-8" d="M311.01,103.88c-.29-.84-11.36,3.97-12.04,4.32-7.44,3.92-13.64,10.17-15.71,18.52-1.12,4.53-1.12,9.19-.13,13.75.5,2.31,1.3,4.55,2.3,6.7.48,1.03,3.64,7.9,4.68,7.8,0,0,23.8-2.32,28.06-24.19,1.06-5.45-.91-12.74-3.06-17.67-1.35-3.1-2.99-6.02-4.1-9.23Z"/>
    <path class="cls-8" d="M333.27,111.65c4.03-.47,8.09-.91,12.07-1.93,3.32-.85,6.61-1.98,9.63-3.61s4.9-3.88,7.32-6.29c3.54-3.54,6.02-10.61,6.49-15.45.63-6.39-.22-12.8-.3-19.19,0-.54-14.55,2.91-15.43,3.22-5.81,2.02-11.76,5.02-16.02,9.56-4.99,5.32-6.29,12.97-5.49,19.96.52,4.57.97,9.18,1.72,13.73Z"/>
    <path class="cls-8" d="M323.2,186.31s-3.29-17.61,1.35-27.28c1.94-3.29,7.16-17.22,36.77-19.74.97,8.71,6.39,32.31-14.51,43.34-5.81,2.13-12.96,3.48-23.61,3.68Z"/>
    <path class="cls-8" d="M431.37,96.14c.23,4.35.24,8.74,0,13.09-.17,3.02-.46,6.04-1.22,8.98-2.54,9.96-11.19,18.39-21.42,19.73-7.35.97-16.83,1.35-19.74,0,0,0-.77-14.6,1.55-20.46,5.57-14.05,20.38-21.5,34.87-21.42,1.99.01,3.98.03,5.96.08Z"/>
    <path class="cls-8" d="M377.96,198.5s-.58-10.84.77-14.9,7.55-28.83,46.83-21.87c0,0,2.13,14.71-8.51,28.44-4.26,3.1-8.9,13.55-39.09,8.32Z"/>
    <path class="cls-8" d="M494.06,153.8s-41.02-21.85-50.89,26.42c5.81,2.6,37.73,20.6,50.89-26.42Z"/>
  </g>
  <g>
    <path class="cls-4" d="M228.97,271.84s18.96,13.55,34.44,15.09c13.55,0,35.41,0,54.37-15.09,11.03-7.16,63.71-46.83,84-52.25,3.65-1.35,8.68-4.06,7.72,2.32-2.52,1.74-32.12,22.83-48.57,46.44-16.83,25.35-41.8,60.37-57.08,117.65-2.9,10.45-15.48,63.28-18,84.56s-6.97,67.92-7.16,78.37c-.05,2.91-.06,5.82-.28,8.72-.16,2.12-.32,4.55-1.36,6.46-.97,1.79-3.2,2.12-4.86,1.04-.38-.25-.71-.56-1.04-.87-.14-.13-.28-.26-.37-.43-.09-.16-.13-.35-.17-.54-.17-.84-.39-1.56-.39-2.44-.07-1.15-.13-2.31-.19-3.46-.18-3.28-.36-6.55-.55-9.83-.25-4.25-.5-8.51-.77-12.76-.31-4.86-.63-9.72-.98-14.58s-.75-10.19-1.18-15.28-.86-9.91-1.37-14.85c-.46-4.45-.96-8.89-1.56-13.32-.48-3.57-1.02-7.13-1.74-10.66-.19-.92-.39-1.83-.61-2.74-4.64-23.99-20.41-130.71-80.79-199.98-3.1-4.26-28.98-32.46-43.49-39.86-3.19-2.76-2.32-3.34-2.47-4.21s2.18-2.9,8.27-.29,40.39,20.22,86.16,52.78Z"/>
    <ellipse class="cls-4" cx="272.51" cy="233.68" rx="32.69" ry="31.92"/>
  </g>
  <text class="cls-3" transform="translate(423.26 410.95) scale(1.02 1)"><tspan x="0" y="0">NO</tspan><tspan class="cls-5" x="256.24" y="0">R</tspan><tspan x="369.79" y="0">C</tspan><tspan class="cls-5" x="487.04" y="0">R</tspan><tspan x="600.59" y="0">OSS</tspan></text>
  <text class="cls-2" transform="translate(428.22 526.05) scale(1.05 1)"><tspan class="cls-7" x="0" y="0">H</tspan><tspan x="77.71" y="0">O</tspan><tspan class="cls-1" x="163.5" y="0">S</tspan><tspan x="236.44" y="0">PI</tspan><tspan class="cls-6" x="343.52" y="0">T</tspan><tspan x="407.48" y="0">AL</tspan></text>
</svg>